<svg width="25" height="25" viewBox="0 0 25 25" fill="none" xmlns="http://www.w3.org/2000/svg">
<mask id="mask0_152_68" style="mask-type:alpha" maskUnits="userSpaceOnUse" x="0" y="0" width="25" height="25">
<rect x="0.57373" y="0.531006" width="24" height="24" fill="#D9D9D9"/>
</mask>
<g mask="url(#mask0_152_68)">
<path d="M11.5261 14.5789H13.6217V11.5789H16.6217V9.48321H13.6217V6.48321H11.5261V9.48321H8.52606V11.5789H11.5261V14.5789ZM2.37061 22.7343V4.60278C2.37061 3.97307 2.59236 3.43647 3.03586 2.99298C3.47932 2.5495 4.01591 2.32776 4.64563 2.32776H20.5021C21.1318 2.32776 21.6684 2.5495 22.1119 2.99298C22.5554 3.43647 22.7772 3.97307 22.7772 4.60278V16.4593C22.7772 17.089 22.5554 17.6256 22.1119 18.0691C21.6684 18.5126 21.1318 18.7343 20.5021 18.7343H6.37061L2.37061 22.7343ZM5.52061 16.4593H20.5021V4.60278H4.64563V17.3153L5.52061 16.4593Z" fill="#1C1B1F"/>
</g>
</svg>
