<svg width="65" height="65" viewBox="0 0 65 65" fill="none" xmlns="http://www.w3.org/2000/svg">
<g id="amazon">
<circle id="Ellipse 8" cx="32.3669" cy="32.6999" r="32.3" fill="#E7E8E8"/>
<path id="Vector" d="M34.3109 29.1661C31.6159 29.2657 24.931 30.0238 24.931 35.6684C24.931 41.7279 32.5843 41.977 35.0856 38.059C35.4453 38.6235 37.0446 40.1342 37.5925 40.6488L40.7357 37.5499C40.7357 37.5499 38.9483 36.1498 38.9483 34.628V26.4877C38.9483 25.0876 37.5925 21.9333 32.7338 21.9333C27.864 21.9333 25.2796 24.977 25.2796 27.7052L29.347 28.0815C30.2491 25.3422 32.3464 25.3422 32.3464 25.3422C34.5987 25.3367 34.3109 26.9913 34.3109 29.1661ZM34.3109 33.9695C34.3109 38.3966 29.6514 37.7325 29.6514 34.9213C29.6514 32.3093 32.446 31.7836 34.3109 31.7227V33.9695ZM41.8369 43.0173C41.4108 43.5707 37.9632 46.725 32.1804 46.725C26.3975 46.725 21.9704 42.7683 20.6146 41.1358C20.2383 40.7097 20.6699 40.5105 20.919 40.6765C24.9753 43.1391 31.3116 47.1954 41.5326 42.3533C41.9476 42.1485 42.2686 42.4639 41.8369 43.0173ZM44.0394 43.1391C43.6797 44.0134 43.154 44.6222 42.8662 44.8546C42.5619 45.1036 42.3405 45.004 42.5065 44.6443C42.6726 44.2846 43.5746 42.071 43.2093 41.6007C42.8496 41.1414 41.1618 41.3627 40.5531 41.4236C39.9554 41.4789 39.8337 41.5343 39.7783 41.407C39.6511 41.0916 40.9792 40.5492 41.8535 40.4386C42.7224 40.3389 44.1224 40.3943 44.3991 40.754C44.6039 41.0362 44.3991 42.2537 44.0394 43.1391Z" fill="black"/>
</g>
</svg>
