<svg width="35" height="35" viewBox="0 0 35 35" fill="none" xmlns="http://www.w3.org/2000/svg">
<g id="undo">
<mask id="mask0_278_78" style="mask-type:alpha" maskUnits="userSpaceOnUse" x="0" y="0" width="35" height="35">
<rect id="Bounding box" width="35" height="35" fill="#D9D9D9"/>
</mask>
<g mask="url(#mask0_278_78)">
<path id="undo_2" d="M10.2084 27.7083V24.7916H20.5625C22.0938 24.7916 23.4245 24.3055 24.5547 23.3333C25.6849 22.361 26.25 21.1458 26.25 19.6874C26.25 18.2291 25.6849 17.0138 24.5547 16.0416C23.4245 15.0694 22.0938 14.5833 20.5625 14.5833H11.375L15.1667 18.3749L13.125 20.4166L5.83337 13.1249L13.125 5.83325L15.1667 7.87492L11.375 11.6666H20.5625C22.9202 11.6666 24.9436 12.4322 26.6329 13.9635C28.3221 15.4947 29.1667 17.4027 29.1667 19.6874C29.1667 21.9721 28.3221 23.8801 26.6329 25.4114C24.9436 26.9426 22.9202 27.7083 20.5625 27.7083H10.2084Z" fill="#00424B"/>
</g>
</g>
</svg>
