<svg width="19" height="19" viewBox="0 0 19 19" fill="none" xmlns="http://www.w3.org/2000/svg">
<g id="how_to_reg">
<mask id="mask0_252_59" style="mask-type:alpha" maskUnits="userSpaceOnUse" x="0" y="0" width="19" height="19">
<rect id="Bounding box" width="19" height="19" fill="#D9D9D9"/>
</mask>
<g mask="url(#mask0_252_59)">
<path id="how_to_reg_2" d="M1.5835 15.8334V13.6167C1.5835 13.1813 1.69565 12.7723 1.91995 12.3897C2.14426 12.007 2.45433 11.7167 2.85016 11.5188C3.52308 11.1758 4.28176 10.8855 5.1262 10.648C5.97065 10.4105 6.90086 10.2917 7.91683 10.2917C8.31266 10.2917 8.6986 10.3115 9.07464 10.3511C9.45068 10.3907 9.81683 10.4501 10.1731 10.5292L8.78766 11.9147C8.64252 11.8883 8.50068 11.8751 8.36214 11.8751H7.91683C6.98002 11.8751 6.13888 11.9872 5.39339 12.2115C4.64791 12.4358 4.03766 12.6799 3.56266 12.9438C3.44391 13.0098 3.34825 13.1022 3.27568 13.2209C3.20311 13.3397 3.16683 13.4716 3.16683 13.6167V14.2501H8.11475L9.69808 15.8334H1.5835ZM12.3106 16.1501L9.57933 13.4188L10.6877 12.3105L12.3106 13.9334L16.3085 9.9355L17.4168 11.0438L12.3106 16.1501ZM7.91683 9.50008C7.046 9.50008 6.30051 9.19001 5.68037 8.56987C5.06023 7.94973 4.75016 7.20425 4.75016 6.33341C4.75016 5.46258 5.06023 4.7171 5.68037 4.09696C6.30051 3.47682 7.046 3.16675 7.91683 3.16675C8.78766 3.16675 9.53315 3.47682 10.1533 4.09696C10.7734 4.7171 11.0835 5.46258 11.0835 6.33341C11.0835 7.20425 10.7734 7.94973 10.1533 8.56987C9.53315 9.19001 8.78766 9.50008 7.91683 9.50008ZM7.91683 7.91675C8.35225 7.91675 8.72499 7.76171 9.03506 7.45164C9.34513 7.14157 9.50016 6.76883 9.50016 6.33341C9.50016 5.898 9.34513 5.52525 9.03506 5.21519C8.72499 4.90512 8.35225 4.75008 7.91683 4.75008C7.48141 4.75008 7.10867 4.90512 6.7986 5.21519C6.48853 5.52525 6.3335 5.898 6.3335 6.33341C6.3335 6.76883 6.48853 7.14157 6.7986 7.45164C7.10867 7.76171 7.48141 7.91675 7.91683 7.91675Z" fill="#02BB59"/>
</g>
</g>
</svg>
