<svg width="46" height="46" viewBox="0 0 46 46" fill="none" xmlns="http://www.w3.org/2000/svg">
<g id="discord">
<path id="Vector" d="M29.578 21.85C29.578 23.253 28.543 24.403 27.232 24.403C25.944 24.403 24.886 23.253 24.886 21.85C24.886 20.447 25.921 19.297 27.232 19.297C28.543 19.297 29.578 20.447 29.578 21.85ZM18.837 19.297C17.526 19.297 16.491 20.447 16.491 21.85C16.491 23.253 17.549 24.403 18.837 24.403C20.148 24.403 21.183 23.253 21.183 21.85C21.206 20.447 20.148 19.297 18.837 19.297ZM43.125 4.738V46C37.3306 40.8794 39.1837 42.5744 32.453 36.317L33.672 40.572H7.59C4.991 40.572 2.875 38.456 2.875 35.834V4.738C2.875 2.116 4.991 0 7.59 0H38.41C41.009 0 43.125 2.116 43.125 4.738ZM36.57 26.542C36.57 19.136 33.258 13.133 33.258 13.133C29.946 10.649 26.795 10.718 26.795 10.718L26.473 11.086C30.383 12.282 32.2 14.007 32.2 14.007C26.7365 11.0126 20.3187 11.0121 15.019 13.34C14.168 13.731 13.662 14.007 13.662 14.007C13.662 14.007 15.571 12.19 19.711 10.994L19.481 10.718C19.481 10.718 16.33 10.649 13.018 13.133C13.018 13.133 9.706 19.136 9.706 26.542C9.706 26.542 11.638 29.877 16.721 30.038C16.721 30.038 17.572 29.003 18.262 28.129C15.341 27.255 14.237 25.415 14.237 25.415C14.5754 25.6518 15.1333 25.9588 15.18 25.99C19.0621 28.164 24.5766 28.8763 29.532 26.795C30.337 26.496 31.234 26.059 32.177 25.438C32.177 25.438 31.027 27.324 28.014 28.175C28.704 29.049 29.532 30.038 29.532 30.038C34.615 29.877 36.57 26.542 36.57 26.542Z" fill="black"/>
</g>
</svg>
