<svg width="25" height="25" viewBox="0 0 25 25" fill="none" xmlns="http://www.w3.org/2000/svg">
<mask id="mask0_152_62" style="mask-type:alpha" maskUnits="userSpaceOnUse" x="0" y="0" width="25" height="25">
<rect x="0.57373" y="0.886108" width="24" height="24" fill="#D9D9D9"/>
</mask>
<g mask="url(#mask0_152_62)">
<path d="M1.57373 20.8861V18.0861C1.57373 17.5194 1.71956 16.9986 2.01123 16.5236C2.3029 16.0486 2.6904 15.6861 3.17373 15.4361C4.20706 14.9194 5.25706 14.5319 6.32373 14.2736C7.3904 14.0153 8.47373 13.8861 9.57373 13.8861C10.6737 13.8861 11.7571 14.0153 12.8237 14.2736C13.8904 14.5319 14.9404 14.9194 15.9737 15.4361C16.4571 15.6861 16.8446 16.0486 17.1362 16.5236C17.4279 16.9986 17.5737 17.5194 17.5737 18.0861V20.8861H1.57373ZM19.5737 20.8861V17.8861C19.5737 17.1528 19.3696 16.4486 18.9612 15.7736C18.5529 15.0986 17.9737 14.5194 17.2237 14.0361C18.0737 14.1361 18.8737 14.3069 19.6237 14.5486C20.3737 14.7903 21.0737 15.0861 21.7237 15.4361C22.3237 15.7694 22.7821 16.1403 23.0987 16.5486C23.4154 16.9569 23.5737 17.4028 23.5737 17.8861V20.8861H19.5737ZM9.57373 12.8861C8.47373 12.8861 7.53206 12.4944 6.74873 11.7111C5.9654 10.9278 5.57373 9.98611 5.57373 8.88611C5.57373 7.78611 5.9654 6.84444 6.74873 6.06111C7.53206 5.27778 8.47373 4.88611 9.57373 4.88611C10.6737 4.88611 11.6154 5.27778 12.3987 6.06111C13.1821 6.84444 13.5737 7.78611 13.5737 8.88611C13.5737 9.98611 13.1821 10.9278 12.3987 11.7111C11.6154 12.4944 10.6737 12.8861 9.57373 12.8861ZM19.5737 8.88611C19.5737 9.98611 19.1821 10.9278 18.3987 11.7111C17.6154 12.4944 16.6737 12.8861 15.5737 12.8861C15.3904 12.8861 15.1571 12.8653 14.8737 12.8236C14.5904 12.7819 14.3571 12.7361 14.1737 12.6861C14.6237 12.1528 14.9696 11.5611 15.2112 10.9111C15.4529 10.2611 15.5737 9.58611 15.5737 8.88611C15.5737 8.18611 15.4529 7.51111 15.2112 6.86111C14.9696 6.21111 14.6237 5.61944 14.1737 5.08611C14.4071 5.00278 14.6404 4.94861 14.8737 4.92361C15.1071 4.89861 15.3404 4.88611 15.5737 4.88611C16.6737 4.88611 17.6154 5.27778 18.3987 6.06111C19.1821 6.84444 19.5737 7.78611 19.5737 8.88611ZM3.57373 18.8861H15.5737V18.0861C15.5737 17.9028 15.5279 17.7361 15.4362 17.5861C15.3446 17.4361 15.2237 17.3194 15.0737 17.2361C14.1737 16.7861 13.2654 16.4486 12.3487 16.2236C11.4321 15.9986 10.5071 15.8861 9.57373 15.8861C8.6404 15.8861 7.7154 15.9986 6.79873 16.2236C5.88206 16.4486 4.97373 16.7861 4.07373 17.2361C3.92373 17.3194 3.8029 17.4361 3.71123 17.5861C3.61956 17.7361 3.57373 17.9028 3.57373 18.0861V18.8861ZM9.57373 10.8861C10.1237 10.8861 10.5946 10.6903 10.9862 10.2986C11.3779 9.90694 11.5737 9.43611 11.5737 8.88611C11.5737 8.33611 11.3779 7.86528 10.9862 7.47361C10.5946 7.08194 10.1237 6.88611 9.57373 6.88611C9.02373 6.88611 8.5529 7.08194 8.16123 7.47361C7.76956 7.86528 7.57373 8.33611 7.57373 8.88611C7.57373 9.43611 7.76956 9.90694 8.16123 10.2986C8.5529 10.6903 9.02373 10.8861 9.57373 10.8861Z" fill="#1C1B1F"/>
</g>
</svg>
