<svg width="64" height="10" viewBox="0 0 64 10" fill="none" xmlns="http://www.w3.org/2000/svg">
<g id="GSMArena logo" clip-path="url(#clip0_252_38)">
<g id="layer1">
<g id="g187">
<path id="path176" d="M27.2839 7.07635C27.1501 7.05644 27.0167 7.1092 26.9206 7.23617C26.9206 7.23617 26.0065 8.80325 25.8715 9.01708C25.7343 9.22823 25.8777 9.37968 26.0573 9.37968H31.6627C31.8831 9.37968 31.97 9.13862 31.7373 9.01708C31.4276 8.85369 27.4168 7.12046 27.4168 7.12046C27.3735 7.09779 27.3285 7.08299 27.2839 7.07635Z" fill="#C83737"/>
<path id="path174" d="M15.9723 0.744873C15.77 0.744873 15.603 0.918305 15.603 1.13268V9.05942C15.603 9.27379 15.77 9.4478 15.9723 9.4478H17.5051C17.7084 9.4478 17.876 9.27379 17.876 9.05942V4.21333C17.876 4.00003 17.9643 4.34689 18.0699 4.53067C18.0699 4.53067 20.1105 8.01867 20.1975 8.15551C20.2817 8.29019 20.5206 8.30314 20.6147 8.15263C20.7224 7.97716 22.7385 4.53066 22.7385 4.53066C22.8456 4.34688 22.9329 4.00002 22.9329 4.21332V8.66588C22.9329 8.91594 23.2602 8.98405 23.3959 8.80107C23.613 8.5097 25.0719 5.9633 25.0719 5.9633C25.1992 5.79615 25.238 5.63291 25.238 5.37615V1.13268C25.238 0.918305 25.0724 0.744873 24.8698 0.744873H23.1029C22.8977 0.744873 22.6443 0.8949 22.5358 1.07654L20.4045 4.69106L18.2709 1.07654C18.1648 0.8949 17.9109 0.744873 17.705 0.744873H15.9723Z" fill="#C83737"/>
<path id="path172" d="M11.741 0.573486C11.2754 0.573486 10.8646 0.641972 10.5046 0.773975C10.1464 0.907051 9.84375 1.09303 9.59986 1.33477C9.35596 1.57624 9.14486 1.85024 9.02521 2.16307C8.90632 2.47537 8.82967 2.80694 8.82967 3.15922C8.82967 4.46825 9.4633 5.10446 10.5024 5.54045C10.719 5.63113 11.7523 5.99749 11.8957 6.06859C12.4603 6.35326 12.5212 6.82702 12.3505 7.17071C12.188 7.49454 11.8388 7.61899 11.4442 7.59001C10.7125 7.53448 10.2458 7.31951 9.68047 6.83389C9.53276 6.70403 9.34108 6.75222 9.28394 6.90434C9.15612 7.24803 8.88524 7.88546 8.52246 8.30776C9.08704 8.87334 10.3297 9.60005 11.4785 9.60005C12.9054 9.60005 13.9815 9.07853 14.447 7.71718C14.8611 6.50984 14.582 4.85887 12.8005 4.2619C12.6828 4.22407 11.463 3.77535 11.3069 3.67018C11.1521 3.56688 11.0765 3.40822 11.0765 3.19359C11.0765 3.00524 11.1408 2.83608 11.2737 2.68664C11.4028 2.53666 11.6206 2.46094 11.9257 2.46094C12.265 2.46094 12.7007 2.648 13.0782 2.92837C13.215 3.03059 13.3962 3.00087 13.5031 2.84875C13.7146 2.54745 13.9623 2.10659 14.1649 1.82568C14.306 1.62338 14.2528 1.44637 14.1099 1.34737C13.8433 1.16117 13.5132 0.969742 13.1904 0.840423C12.7759 0.673272 12.2972 0.573486 11.741 0.573486Z" fill="#C83737"/>
<path id="gsm-fill" d="M4.58004 0.533448C3.4792 0.532911 2.58347 0.769591 1.76836 1.44195C0.849411 2.19748 0.200195 3.5706 0.200195 5.06449C0.200959 5.84068 0.292204 6.20635 0.473085 6.7526C0.656261 7.29698 0.927544 7.78227 1.29339 8.21101C2.03579 9.08191 3.032 9.57835 4.40302 9.57835C5.51943 9.57835 6.40652 9.11241 7.06601 8.34964C7.63875 7.69096 8.1114 6.85092 8.28284 5.95695C8.32672 5.73319 8.24322 5.50585 7.96692 5.41678C7.8215 5.36687 5.82545 4.4695 5.67977 4.42121C5.53257 4.37238 5.37259 4.4693 5.29631 4.6217C5.19528 4.82507 4.85306 5.48377 4.74999 5.69975C4.67677 5.85107 4.73008 5.98662 4.87091 6.04001C5.04745 6.10199 5.97064 6.49483 5.97064 6.49483C5.76195 7.22112 5.10483 7.54196 4.58004 7.54196C3.84887 7.54196 3.15172 7.24277 2.74607 6.42151C2.56162 6.04858 2.46828 5.59653 2.46828 5.06449C2.46828 4.53755 2.56174 4.08869 2.7439 3.71549C3.17224 2.85291 4.09829 2.59619 4.73201 2.59619C5.07132 2.59619 5.75291 2.7362 6.13023 3.0155C6.26825 3.11718 6.46925 3.12715 6.57742 2.97368C6.78891 2.67265 7.0928 2.24345 7.29205 1.96093C7.4362 1.76185 7.36853 1.60323 7.23867 1.48491C6.757 1.04195 5.70181 0.536668 4.58004 0.533448Z" fill="#C83737"/>
<path id="path162" d="M48.4296 0.742432C48.0882 0.742432 47.959 0.863462 47.959 1.18408V8.94012C47.959 9.24679 48.089 9.38635 48.3446 9.38635H50.0462C50.2286 9.38635 50.3725 9.16925 50.3725 8.94012V4.11293C50.3725 3.47116 50.7338 2.79387 51.5637 2.74102C52.4656 2.68655 52.8296 3.10672 52.8296 4.00123V8.774C52.8296 9.11877 53.0251 9.38635 53.3912 9.38635H54.7529C55.121 9.38635 55.3003 9.117 55.3003 8.81811V3.83683C55.3003 2.66088 54.8191 1.54278 53.7262 1.05233C52.483 0.500976 50.9665 0.758545 50.2647 1.28146H50.2037C50.2037 1.28146 50.0461 1.10752 49.964 1.0002C49.8816 0.894761 49.7026 0.742432 49.3855 0.742432H48.4296Z" fill="#666666"/>
<path id="path160" d="M28.8697 0.742432C28.5724 0.742432 28.3594 0.843162 28.1708 1.11763L26.1675 4.52021C26.0534 4.68468 26.1196 4.87449 26.2824 4.94639C26.6158 5.09476 27.2292 5.29806 27.5417 5.44589C27.7874 5.56341 27.9376 5.51957 28.0728 5.30842L29.4732 2.96671L29.6409 2.96498V5.62976C29.6409 5.96245 29.7678 6.09008 29.9645 6.18425C30.162 6.27279 31.3827 6.82208 31.5691 6.89398C31.7896 6.98252 31.9602 6.87628 31.9602 6.63106V1.20642C31.9602 0.952341 31.7601 0.742432 31.519 0.742432H28.8697Z" fill="#666666"/>
<path id="path158" d="M60.0856 0.602811C58.9383 0.605495 58.0296 0.993199 57.439 1.34118C57.2581 1.45172 57.2373 1.66465 57.3208 1.81892C57.4282 2.01317 57.8408 2.64071 57.964 2.82422C58.088 3.01391 58.1755 3.0417 58.3791 2.92848C58.7281 2.73584 59.3775 2.47099 59.9293 2.49943C60.5699 2.52921 61.0439 2.8411 61.1832 3.28191C60.154 3.59153 58.9362 4.02348 58.1552 4.35939C57.1011 4.81121 56.397 5.62158 56.397 6.91075C56.397 8.43254 57.4975 9.52684 58.9821 9.52684C59.8449 9.52684 60.5211 9.38707 61.3847 8.81425H61.5007C61.5007 8.81425 61.5788 8.99533 61.6222 9.12357C61.6673 9.25316 61.7377 9.40025 62.0367 9.40025C62.3393 9.40025 63.0224 9.40025 63.2573 9.40025C63.4936 9.40025 63.6669 9.29601 63.6669 8.99927C63.6669 8.70387 63.662 4.2076 63.662 4.2076C63.662 2.43951 62.6151 0.594494 60.0856 0.602811ZM61.2856 5.12125V6.12999C61.2856 6.86835 61.0061 7.33917 59.9897 7.54201C59.3399 7.67347 58.9683 7.47127 58.7767 7.05568C58.6091 6.68891 58.6929 6.18063 59.2217 5.9507C59.8733 5.67033 60.4243 5.48453 61.2856 5.12125Z" fill="#666666"/>
<path id="path156" d="M37.312 0.6023C36.5722 0.603811 35.9059 0.918021 35.4901 1.40941H35.428C35.428 1.40941 35.3487 1.22642 35.2765 1.05712C35.1867 0.847045 35.0526 0.744934 34.7939 0.744934H33.8609C33.6395 0.744934 33.436 0.868763 33.436 1.19689V8.94033C33.436 9.15685 33.5992 9.38255 33.8544 9.38255H35.3381C35.5866 9.38255 35.7624 9.1484 35.7624 8.91284C35.7602 7.87211 35.7581 4.96336 35.7581 4.33769C35.7581 3.32352 36.2246 2.52298 37.0762 2.52298C37.4155 2.52298 37.7733 2.66116 38.1509 2.93885C38.2881 3.03785 38.4909 3.04923 38.5986 2.89818C38.8101 2.59634 39.1254 2.07526 39.3247 1.79435C39.4665 1.59205 39.4142 1.41669 39.2713 1.31661C39.0034 1.12907 38.6765 0.938265 38.3502 0.806799C38 0.665607 37.6483 0.601614 37.312 0.6023Z" fill="#666666"/>
<path id="arena-fill" d="M43.3408 0.540231C42.8775 0.535704 42.3687 0.610805 41.8086 0.814041C41.0284 1.10032 40.3911 1.63303 39.9446 2.35207C39.4854 3.0966 39.2279 4.03678 39.2251 5.11481C39.2251 6.6103 39.8762 7.96009 40.7949 8.71616C41.6097 9.38797 42.4072 9.58271 43.5085 9.57654C44.6306 9.57492 45.6855 9.02252 46.1672 8.57982C46.296 8.46338 46.3651 8.30507 46.2195 8.10438C46.0222 7.8224 45.7163 7.37939 45.5054 7.08131C45.398 6.92624 45.1967 6.93778 45.0587 7.03892C44.6806 7.31715 43.9996 7.53957 43.6605 7.53957C43.0906 7.53957 42.4062 7.35158 42.0362 6.76454C43.8535 5.95347 46.8408 4.65796 46.9711 4.6153C47.249 4.52408 47.3323 4.29699 47.2887 4.07055C47.1591 3.43763 46.8885 2.79215 46.5 2.23006C46.0244 1.54241 45.3728 0.982442 44.599 0.744729C44.2221 0.629093 43.8041 0.544759 43.3408 0.540231ZM43.3985 2.63276C44.0688 2.64542 44.7185 2.97895 44.8986 3.49429C44.8986 3.49429 42.2541 4.63304 41.5079 4.92119C41.3155 3.97383 41.961 2.99912 42.7378 2.73243C42.9491 2.66026 43.1751 2.62854 43.3985 2.63276Z" fill="#666666"/>
</g>
</g>
</g>
<defs>
<clipPath id="clip0_252_38">
<rect width="63.4667" height="9.06667" fill="white" transform="translate(0.200195 0.533447)"/>
</clipPath>
</defs>
</svg>
