<svg width="77" height="77" viewBox="0 0 77 77" fill="none" xmlns="http://www.w3.org/2000/svg">
<g id="device_unknown">
<mask id="mask0_97_21" style="mask-type:alpha" maskUnits="userSpaceOnUse" x="0" y="0" width="77" height="77">
<rect id="Bounding box" width="76.8733" height="76.8733" fill="#D9D9D9"/>
</mask>
<g mask="url(#mask0_97_21)">
<path id="device_unknown_2" d="M38.4368 54.452C37.5292 54.452 36.7418 54.1183 36.0745 53.451C35.4072 52.7837 35.0736 51.9963 35.0736 51.0888C35.0736 50.1812 35.4072 49.3938 36.0745 48.7265C36.7418 48.0592 37.5292 47.7256 38.4368 47.7256C39.3443 47.7256 40.1317 48.0592 40.799 48.7265C41.4663 49.3938 41.8 50.1812 41.8 51.0888C41.8 51.9963 41.4663 52.7837 40.799 53.451C40.1317 54.1183 39.3443 54.452 38.4368 54.452ZM36.0345 44.2022C36.0345 41.7465 36.2347 40.0649 36.635 39.1574C37.0354 38.2499 38.1698 36.9953 40.0383 35.3938C40.7857 34.6464 41.4263 33.9124 41.9601 33.1917C42.494 32.471 42.7609 31.6569 42.7609 30.7494C42.7609 29.7885 42.4005 28.9343 41.6798 28.1869C40.9592 27.4396 39.8781 27.0659 38.4368 27.0659C36.9954 27.0659 35.901 27.4796 35.1536 28.3071C34.4062 29.1345 33.8991 30.002 33.6322 30.9095L29.3081 29.1479C29.9487 27.2794 31.043 25.6912 32.5912 24.3833C34.1393 23.0754 36.0879 22.4214 38.4368 22.4214C40.9458 22.4214 43.0945 23.1021 44.8829 24.4634C46.6713 25.8247 47.5655 27.8666 47.5655 30.5892C47.5655 31.8705 47.2452 33.0716 46.6045 34.1927C45.9639 35.3137 45.1632 36.3547 44.2023 37.3157C42.6007 38.9172 41.6398 40.0382 41.3195 40.6789C40.9992 41.3195 40.839 42.4939 40.839 44.2022H36.0345ZM22.4215 73.6703C20.6598 73.6703 19.1517 73.043 17.8972 71.7885C16.6426 70.534 16.0154 69.0259 16.0154 67.2642V9.60923C16.0154 7.84755 16.6426 6.33945 17.8972 5.08492C19.1517 3.83039 20.6598 3.20312 22.4215 3.20312H54.452C56.2137 3.20312 57.7218 3.83039 58.9763 5.08492C60.2309 6.33945 60.8581 7.84755 60.8581 9.60923V67.2642C60.8581 69.0259 60.2309 70.534 58.9763 71.7885C57.7218 73.043 56.2137 73.6703 54.452 73.6703H22.4215ZM22.4215 64.0611V67.2642H54.452V64.0611H22.4215ZM22.4215 57.655H54.452V19.2184H22.4215V57.655ZM22.4215 12.8123H54.452V9.60923H22.4215V12.8123Z" fill="#1C1B1F"/>
</g>
</g>
</svg>
