<?xml version="1.0" standalone="no"?>
<!DOCTYPE svg PUBLIC "-//W3C//DTD SVG 20010904//EN"
 "http://www.w3.org/TR/2001/REC-SVG-20010904/DTD/svg10.dtd">
<svg version="1.0" xmlns="http://www.w3.org/2000/svg"
 width="44.000000pt" height="43.000000pt" viewBox="0 0 44.000000 43.000000"
 preserveAspectRatio="xMidYMid meet">

<g transform="translate(0.000000,43.000000) scale(0.100000,-0.100000)"
fill="#000000" stroke="none">
<path d="M101 405 c-6 -16 -13 -35 -16 -41 -2 -7 -20 -17 -39 -24 -43 -14 -46
-25 -9 -35 38 -9 51 -21 58 -56 8 -37 27 -33 39 9 7 25 17 34 47 44 22 6 39
15 39 19 0 5 -18 14 -40 20 -22 7 -40 17 -40 23 -1 6 -7 25 -14 41 l-14 30
-11 -30z"/>
<path d="M285 329 c-2 -8 -11 -32 -18 -54 -12 -35 -20 -42 -66 -59 -58 -21
-56 -30 9 -49 39 -11 45 -17 59 -60 9 -26 21 -47 26 -47 6 0 17 21 26 47 14
42 20 48 61 62 26 9 49 19 53 22 3 4 -18 15 -47 25 -49 18 -54 23 -68 66 -17
53 -27 67 -35 47z"/>
<path d="M64 135 c-4 -16 -18 -31 -38 -39 l-31 -14 32 -12 c19 -7 33 -20 37
-36 8 -31 24 -31 32 0 4 16 18 29 37 36 l32 12 -32 14 c-20 9 -35 23 -39 39
-8 32 -22 32 -30 0z"/>
</g>
</svg>
