<svg width="44" height="44" viewBox="0 0 44 44" fill="none" xmlns="http://www.w3.org/2000/svg">
<g id="twitter">
<path id="Vector" d="M39.4771 13.0381C39.505 13.429 39.505 13.8199 39.505 14.2107C39.505 26.132 30.4315 39.8681 13.8477 39.8681C8.73855 39.8681 3.9924 38.3883 0 35.8199C0.725914 35.9036 1.42381 35.9315 2.17766 35.9315C6.39332 35.9315 10.2741 34.5077 13.3731 32.0788C9.40861 31.995 6.08627 29.3986 4.94158 25.8249C5.5 25.9086 6.05834 25.9645 6.64469 25.9645C7.4543 25.9645 8.26401 25.8528 9.01777 25.6574C4.8858 24.8198 1.78673 21.1904 1.78673 16.8072V16.6955C2.98719 17.3656 4.38324 17.7844 5.86283 17.8401C3.43389 16.2208 1.84259 13.4569 1.84259 10.33C1.84259 8.65488 2.2892 7.11935 3.07098 5.77924C7.51008 11.2513 14.1827 14.8249 21.6648 15.2158C21.5253 14.5457 21.4415 13.8478 21.4415 13.1498C21.4415 8.18025 25.4618 4.13208 30.4593 4.13208C33.0557 4.13208 35.4008 5.22091 37.0481 6.97979C39.0861 6.58895 41.0404 5.8351 42.7714 4.80213C42.1013 6.89609 40.6775 8.65497 38.807 9.77164C40.6217 9.57631 42.3806 9.07366 43.9998 8.37576C42.7716 10.1625 41.236 11.7538 39.4771 13.0381Z" fill="black"/>
</g>
</svg>
